<svg width="24" height="24" viewBox="0 0 24 24" fill="none" xmlns="http://www.w3.org/2000/svg">
<g clip-path="url(#clip0_603_25)">
<g opacity="0.9">
<path d="M9.32669 17.2826L7.29395 15.0448L7.2427 15.0875L5.60284 13.4092L6.49964 19.1402L10.0612 22.706L10.2576 18.064L9.39074 17.2228L9.32669 17.2826Z" fill="#AEAEAE" style="fill:#AEAEAE;fill:color(display-p3 0.6824 0.6824 0.6824);fill-opacity:1;"/>
<path d="M17.8164 7.82349L12.0854 6.9267L14.5196 9.39502L14.4683 9.43346L15.3651 10.4199L15.4847 10.326L16.7402 11.5815L21.3822 11.3851L17.8164 7.82349Z" fill="#AEAEAE" style="fill:#AEAEAE;fill:color(display-p3 0.6824 0.6824 0.6824);fill-opacity:1;"/>
</g>
<path opacity="0.9" d="M17.9018 14.4897L19.3751 16.7488L15.4249 20.6989L13.2427 19.2769L17.9018 14.4897Z" fill="#E6E2E0" style="fill:#E6E2E0;fill:color(display-p3 0.9020 0.8863 0.8784);fill-opacity:1;"/>
<path opacity="0.9" d="M1.35374 2.67757C5.18434 1.61422 8.75445 3.59572 10.4327 5.26974C10.9324 5.76938 18.4185 13.2555 18.4185 13.2555L11.9359 19.7381C11.9359 19.7381 5.15872 12.9608 3.95018 11.7523C2.27616 10.0825 0.290391 6.51244 1.35374 2.67757Z" fill="#ECE5E3" style="fill:#ECE5E3;fill:color(display-p3 0.9255 0.8980 0.8902);fill-opacity:1;"/>
<path d="M7.60142 10.8427C6.59198 10.8427 5.77366 10.0244 5.77366 9.01495C5.77366 8.00551 6.59198 7.18719 7.60142 7.18719C8.61087 7.18719 9.42918 8.00551 9.42918 9.01495C9.42918 10.0244 8.61087 10.8427 7.60142 10.8427Z" fill="white" style="fill:white;fill-opacity:1;"/>
<path d="M7.60142 11.3765C6.29716 11.3765 5.23986 10.3192 5.23986 9.01495C5.23986 7.71069 6.29716 6.65338 7.60142 6.65338C8.90568 6.65338 9.96299 7.71069 9.96299 9.01495C9.96299 10.3192 8.90568 11.3765 7.60142 11.3765Z" stroke="#70708D" style="stroke:#70708D;stroke:color(display-p3 0.4392 0.4392 0.5529);stroke-opacity:1;" stroke-width="1.06762"/>
<path d="M1.12739 2.79289C1.17437 2.62634 1.30248 2.49396 1.4733 2.44698C3.27544 1.94734 5.23131 2.04556 7.12312 2.72883C8.58789 3.25837 10.0142 4.14663 11.0349 5.16727L12.5722 6.70464L18.1409 7.58008C18.2434 7.59716 18.3416 7.64414 18.4142 7.72101L21.9801 11.2826C22.121 11.4235 22.1637 11.6285 22.0911 11.8121C22.0185 11.9957 21.8477 12.1196 21.6512 12.1281L18.1366 12.2776L19.0164 13.1573C19.2085 13.3495 19.2085 13.6655 19.0164 13.8577L18.5039 14.3701L20.0413 16.7231C20.1694 16.9196 20.1438 17.1758 19.9772 17.3424L16.027 21.2925C15.8605 21.4591 15.6043 21.4847 15.4078 21.3566L13.0548 19.8192L12.5423 20.3317C12.3502 20.5239 12.0342 20.5239 11.842 20.3317L10.9623 19.452L10.8043 22.9751C10.7957 23.1715 10.6719 23.3424 10.4882 23.415C10.4285 23.4363 10.3687 23.4491 10.3089 23.4491C10.1808 23.4491 10.0527 23.3979 9.95871 23.3039L6.39287 19.7381C6.32028 19.6655 6.26903 19.5673 6.25195 19.4648L5.38077 13.8918L3.84341 12.3545C2.82277 11.3338 1.93451 9.90748 1.40497 8.44271C0.721699 6.5509 0.627749 4.5993 1.12739 2.79289ZM15.6085 20.3146L18.9907 16.9324L17.7865 15.0876L16.1253 16.7488L15.4249 17.4491L13.7637 19.1103L15.6085 20.3146ZM4.54803 11.6541L6.2007 13.3068C6.2007 13.3068 6.77295 13.879 7.9217 15.0278L7.22134 15.7281L6.57223 15.079L7.20853 19.153L9.86476 21.8093L10.0014 18.5082L6.9096 15.4164L7.60996 14.716L10.8512 17.9573C10.8512 17.9573 11.2954 18.4014 12.1794 19.2854L12.6192 18.8456C12.6235 18.8413 13.3238 18.1409 14.7203 16.7445L15.4206 16.0441L17.5089 13.9644C17.5132 13.9602 17.6626 13.8107 17.9658 13.5075L16.6377 12.1794C16.6377 12.1794 16.1381 11.6669 15.1431 10.642L15.8434 9.94165L17.1843 11.3253L20.4854 11.1886L17.8334 8.53666L13.7594 7.90037L15.8605 9.95873L15.1601 10.6591L11.9957 7.53738L10.3388 5.88044C8.96369 4.50535 5.69252 2.46407 2.01565 3.34378C1.13166 7.00784 3.16867 10.279 4.54803 11.6541Z" fill="#70708D" style="fill:#70708D;fill:color(display-p3 0.4392 0.4392 0.5529);fill-opacity:1;"/>
<path d="M18.3843 19.6356C18.5765 19.4434 18.8925 19.4434 19.0847 19.6356L21.7324 22.2833C21.9246 22.4754 21.9246 22.7915 21.7324 22.9836C21.6342 23.0818 21.5103 23.1288 21.3822 23.1288C21.2541 23.1288 21.1302 23.0818 21.032 22.9836L18.3843 20.3359C18.1879 20.1438 18.1879 19.8278 18.3843 19.6356Z" fill="#FFA235" style="fill:#FFA235;fill:color(display-p3 1.0000 0.6353 0.2078);fill-opacity:1;"/>
<path d="M19.9431 18.7772C19.7509 18.5851 19.7509 18.269 19.9431 18.0769C20.1353 17.8847 20.4513 17.8847 20.6434 18.0769L22.531 19.9644C22.7232 20.1566 22.7232 20.4726 22.531 20.6648C22.4328 20.763 22.3089 20.81 22.1808 20.81C22.0527 20.81 21.9288 20.763 21.8306 20.6648L19.9431 18.7772Z" fill="#FFA235" style="fill:#FFA235;fill:color(display-p3 1.0000 0.6353 0.2078);fill-opacity:1;"/>
<path d="M17.4534 21.2669L19.3409 23.1545C19.5331 23.3466 19.5331 23.6627 19.3409 23.8548C19.2427 23.9531 19.1189 24 18.9907 24C18.8626 24 18.7388 23.9531 18.6406 23.8548L16.753 21.9673C16.5609 21.7751 16.5609 21.4591 16.753 21.2669C16.9452 21.0748 17.2569 21.0748 17.4534 21.2669Z" fill="#FFA235" style="fill:#FFA235;fill:color(display-p3 1.0000 0.6353 0.2078);fill-opacity:1;"/>
</g>
<defs>
<clipPath id="clip0_603_25">
<rect width="24" height="24" fill="white" style="fill:white;fill-opacity:1;"/>
</clipPath>
</defs>
</svg>
