<svg fill="none" height="24" viewBox="0 0 24 24" width="24" xmlns="http://www.w3.org/2000/svg"><g fill="#000"><path d="m8.81809 9.31801c.78104-.78104.78104-2.04737 0-2.82842-.78105-.78105-2.04738-.78105-2.82843 0s-.78105 2.04738 0 2.82842c.78105.78109 2.04738.78109 2.82843 0z"/><g clip-rule="evenodd" fill-rule="evenodd"><path d="m2.45414 2.95391-.26309-.96467c-.34161.09317-.60848.36004-.70165.70165l.96474.26302c-.96476-.26311-.96501-.26204-.96528-.26102l-.00059.00219-.00132.00493-.00313.01207c-.00231.00902-.00503.01998-.00809.03285-.00613.02575-.01364.05917-.0219.1-.01652.08166-.0361.19306-.05381.33223-.03543.27837-.06342.66796-.04453 1.15265.03787.97202.26394 2.31564.98381 3.89935.8229 1.81034 2.27431 3.89984 4.77227 6.09594l.00009.0073c.00061.0373.00179.0899.00408.1563.00458.1327.01359.3209.03136.5519.03542.4605.1062 1.0984.24849 1.8098.2769 1.3845.85643 3.2153 2.12963 4.4885.21774.2177.52368.323.82928.2854.3056-.0377.5769-.214.7353-.478l1.6909-2.8182c.6131.3562 1.2584.7124 1.9374 1.0681.3874.2029.8618.1305 1.1711-.1787l2.8284-2.8285c.3093-.3092.3817-.7836.1787-1.1711-.3556-.679-.7119-1.3243-1.0681-1.9374l2.818-1.6908c.2641-.1584.4404-.4297.478-.7353.0376-.3057-.0676-.6116-.2854-.8293-1.2732-1.27322-3.1039-1.85274-4.4884-2.12965-.7115-.14228-1.3493-.21306-1.8099-.24849-.231-.01777-.4191-.02678-.5518-.03135-.0664-.00229-.1191-.00348-.1564-.00409l-.007-.00009c-2.1961-2.49798-4.28557-3.9494-6.09597-4.77231-1.58371-.71987-2.92733-.94593-3.89936-.9838-.48468-.01888-.87428.00911-1.15265.04454-.13917.01771-.25057.03729-.33223.05381-.04083.00826-.07425.01576-.1.02189-.01287.00307-.02383.00579-.03285.0081l-.01207.00313-.00493.00131-.00219.00059c-.00102.00028-.002.00055.26109.96522zm15.86966 7.69679-1.5386.9232c-.4098-.6365-.8186-1.2324-1.2253-1.79023.1291.02154.2622.04575.3982.07295.8048.16098 1.6435.41378 2.3657.79408zm-7.2497 6.6344c-.6365-.4098-1.2325-.8187-1.79034-1.2255.02156.1293.04577.2625.07299.3986.16096.8048.41377 1.6435.79415 2.3657zm-7.32199-13.4313c-.14793-.00576-.28161-.00564-.40011-.00197-.00368.1185-.00379.25218.00197.40011.02842.72945.20011 1.81651.80606 3.14961 1.17236 2.57918 4.01908 6.18035 10.83867 9.87795l1.781-1.781c-3.6976-6.81957-7.29878-9.66629-9.87797-10.83864-1.3331-.60596-2.42016-.77764-3.14962-.80606zm-.33077-.64563c.00038-.00148.00049-.00208 0 0z"/><path d="m21.4037 23.0358 1.3207.1887-.1885-1.32-.99.1415c.99-.1415.9898-.1427.9897-.1431l-.0002-.0019-.0007-.0045-.0018-.0118-.0056-.0341c-.0046-.0274-.0112-.0639-.0201-.1085-.0178-.089-.0451-.2109-.0849-.357-.0791-.2902-.2109-.6863-.4239-1.1122-.4225-.845-1.2101-1.8906-2.6111-2.3576l-.5863-.1955-1.5812 1.5812.1955.5863c.467 1.401 1.5126 2.1886 2.3576 2.6111.4259.213.8219.3448 1.1121.4239.1461.0399.2681.0671.3571.0849.0445.0089.081.0155.1084.0202l.0342.0055.0117.0018.0045.0007zm.1422-.9898-.1422.9898c.0004.0001.0008.0001.1422-.9898z"/></g></g></svg>