<svg height="30" viewBox="0 0 30 30" width="30" xmlns="http://www.w3.org/2000/svg"><path d="m3 1c1.10457 0 2 .89543 2 2v17c0 .9763-.69986 1.7872-1.625 1.9629v6.6621c0 .2071-.16789.375-.375.375s-.375-.1679-.375-.375v-6.6621c-.92514-.1757-1.625-.9866-1.625-1.9629v-17c0-1.10457.89543-2 2-2zm6 0c1.1046 0 2 .89543 2 2v24c0 1.1046-.8954 2-2 2-1.10457 0-2-.8954-2-2v-24c0-1.10457.89543-2 2-2zm6 0c1.1046 0 2 .89543 2 2v20.5c0 .9763-.6999 1.7872-1.625 1.9629v3.1621c0 .2071-.1679.375-.375.375s-.375-.1679-.375-.375v-3.1621c-.9251-.1757-1.625-.9866-1.625-1.9629v-20.5c0-1.10457.8954-2 2-2zm6 0c1.1046 0 2 .89543 2 2v13.5c0 .9763-.6999 1.7872-1.625 1.9629v10.1621c0 .2071-.1679.375-.375.375s-.375-.1679-.375-.375v-10.1621c-.9251-.1757-1.625-.9866-1.625-1.9629v-13.5c0-1.10457.8954-2 2-2zm6 0c1.1046 0 2 .89543 2 2v17c0 .9763-.6999 1.7872-1.625 1.9629v6.6621c0 .2071-.1679.375-.375.375s-.375-.1679-.375-.375v-6.6621c-.9251-.1757-1.625-.9866-1.625-1.9629v-17c0-1.10457.8954-2 2-2z" fill="currentColor"/></svg>
