<svg fill="none" height="24" viewBox="0 0 24 24" width="24" xmlns="http://www.w3.org/2000/svg"><g fill="#000"><path d="m15.166 7.44824c.3049-.46037.9253-.58686 1.3858-.28222.4603.30484.5868.92529.2822 1.38574l-5.2979 8.00004c-.1657.2502-.4347.4133-.7334.4433-.2986.03-.5954-.0758-.80758-.2881l-2.70215-2.7041c-.39038-.3906-.39057-1.0236 0-1.414.39049-.3903 1.02361-.3903 1.41406 0l1.83787 1.8379z"/><path clip-rule="evenodd" d="m12 1c6.0751 0 11 4.92487 11 11 0 6.0751-4.9249 11-11 11-6.07513 0-11-4.9249-11-11 0-6.07513 4.92487-11 11-11zm0 2c-4.97056 0-9 4.02944-9 9 0 4.9706 4.02944 9 9 9 4.9706 0 9-4.0294 9-9 0-4.97056-4.0294-9-9-9z" fill-rule="evenodd"/></g></svg>