<svg fill="none" height="24" viewBox="0 0 24 24" width="24" xmlns="http://www.w3.org/2000/svg"><g fill="#000"><path d="m15.293 7.29297c.3905-.39052 1.0235-.39052 1.414 0 .3906.39052.3905 1.02354 0 1.41406l-3.2929 3.29297 3.2929 3.293c.3905.3905.3906 1.0235 0 1.414-.3905.3905-1.0235.3905-1.414 0l-3.293-3.2929-3.29297 3.2929c-.39052.3906-1.02354.3906-1.41406 0-.39052-.3905-.39052-1.0235 0-1.414l3.29293-3.293-3.29293-3.29297c-.39052-.39052-.39052-1.02354 0-1.41406.39052-.39053 1.02354-.39053 1.41406 0l3.29297 3.29293z"/><path clip-rule="evenodd" d="m12 1c6.0751 0 11 4.92487 11 11 0 6.0751-4.9249 11-11 11-6.07513 0-11-4.9249-11-11 0-6.07513 4.92487-11 11-11zm0 2c-4.97056 0-9 4.02944-9 9 0 4.9706 4.02944 9 9 9 4.9706 0 9-4.0294 9-9 0-4.97056-4.0294-9-9-9z" fill-rule="evenodd"/></g></svg>