<svg fill="none" height="24" viewBox="0 0 24 24" width="24" xmlns="http://www.w3.org/2000/svg"><path d="m18.9396 2.93934c.5858-.58572 1.5353-.58576 2.1211 0 .5857.58577.5857 1.53532 0 2.12109l-6.9395 6.93947 6.9395 6.9394c.5856.5858.5857 1.5354 0 2.1211-.5858.5857-1.5353.5856-2.1211 0l-6.9395-6.9394-6.93942 6.9394c-.58577.5858-1.5353.5858-2.1211 0-.58578-.5858-.58578-1.5353 0-2.1211l6.93946-6.9394-6.93946-6.93947c-.58577-.58577-.58574-1.5353 0-2.12109.58579-.58579 1.53531-.58579 2.1211 0l6.93942 6.93945z" fill="#000"/></svg>