<svg fill="none" height="24" viewBox="0 0 24 24" width="24" xmlns="http://www.w3.org/2000/svg"><g fill="#000"><path d="m10.0001 13.0002c.5523 0 1 .4477 1 1v6c0 .5522-.4478.9999-1 1-.55224 0-.99994-.4478-.99999-1v-3.586l-5.29297 5.293c-.3905.3905-1.02353.3904-1.41406 0-.39053-.3905-.39053-1.0236 0-1.4141l5.29297-5.2929h-3.58594c-.55225 0-.99995-.4478-1-1 0-.5523.44771-1 1-1z"/><path d="m20.2931 2.29313c.3905-.39051 1.0235-.39052 1.414 0s.3905 1.02356 0 1.41406l-5.2929 5.29297h3.5859c.5523.00004 1 .44774 1 1.00004 0 .5522-.4478.9999-1 1h-6c-.5522 0-.9999-.4478-1-1v-6.00004c0-.55229.4477-1 1-1 .5523.00004 1 .44774 1 1v3.58593z"/></g></svg>