<svg width="21" height="21" viewBox="0 0 21 21" fill="none" xmlns="http://www.w3.org/2000/svg">
<path d="M17 9V12L21 8L17 4V7H13V9" fill="black"/>
<g filter="url(#filter0_dd_7_17)">
<path d="M15 5L15 2C15 1.44772 14.5523 1 14 1C13.4477 1 13 1.44772 13 2L13 5" fill="black"/>
</g>
<path d="M13 11V16C13 16.5523 13.4477 17 14 17C14.5523 17 15 16.5523 15 16V11" fill="black"/>
<path d="M9 1C8.44772 1 8 1.44772 8 2V20C8 20.5523 8.44772 21 9 21C9.55228 21 10 20.5523 10 20V2C10 1.44772 9.55228 1 9 1Z" fill="black"/>
<path d="M4 1C3.44772 1 3 1.44772 3 2V13C3 13.5523 3.44772 14 4 14C4.55228 14 5 13.5523 5 13V2C5 1.44772 4.55228 1 4 1Z" fill="black"/>
<rect width="2" height="2" rx="1" transform="matrix(-1 0 0 1 14 7)" fill="black"/>
<defs>
<filter id="filter0_dd_7_17" x="9" y="1" width="10" height="12" filterUnits="userSpaceOnUse" color-interpolation-filters="sRGB">
<feFlood flood-opacity="0" result="BackgroundImageFix"/>
<feColorMatrix in="SourceAlpha" type="matrix" values="0 0 0 0 0 0 0 0 0 0 0 0 0 0 0 0 0 0 127 0" result="hardAlpha"/>
<feOffset dy="4"/>
<feGaussianBlur stdDeviation="2"/>
<feComposite in2="hardAlpha" operator="out"/>
<feColorMatrix type="matrix" values="0 0 0 0 0 0 0 0 0 0 0 0 0 0 0 0 0 0 0.25 0"/>
<feBlend mode="normal" in2="BackgroundImageFix" result="effect1_dropShadow_7_17"/>
<feColorMatrix in="SourceAlpha" type="matrix" values="0 0 0 0 0 0 0 0 0 0 0 0 0 0 0 0 0 0 127 0" result="hardAlpha"/>
<feOffset dy="4"/>
<feGaussianBlur stdDeviation="2"/>
<feComposite in2="hardAlpha" operator="out"/>
<feColorMatrix type="matrix" values="0 0 0 0 0 0 0 0 0 0 0 0 0 0 0 0 0 0 0.25 0"/>
<feBlend mode="normal" in2="effect1_dropShadow_7_17" result="effect2_dropShadow_7_17"/>
<feBlend mode="normal" in="SourceGraphic" in2="effect2_dropShadow_7_17" result="shape"/>
</filter>
</defs>
</svg>
