<svg viewBox="0 0 24 24" xmlns="http://www.w3.org/2000/svg" xmlns:xlink="http://www.w3.org/1999/xlink"><clipPath id="a"><path d="m.2.5h24v24h-24z"/></clipPath><g clip-path="url(#a)"><path d="m1.2 7c0-2.8 2.3-5 5-5h12c2.8 0 5 2.2 5 5v6c0 2.8-2.2 5-5 5h-5.6l-4.7 4.7c-.4.4-1 .4-1.4 0-.2-.2-.3-.4-.3-.7v-4c-2.8 0-5-2.2-5-5zm5-.8c-.4 0-.8.3-.8.8s.3.8.8.8h12c.4 0 .8-.3.8-.8s-.3-.8-.8-.8zm0 3c-.4 0-.8.3-.8.8s.3.8.8.8h12c.4 0 .8-.3.8-.8s-.3-.8-.8-.8zm-.7 3.8c0-.4.3-.8.8-.8h8c.4 0 .8.3.8.8s-.3.8-.8.8h-8.1c-.4 0-.8-.3-.8-.8z" fill-rule="evenodd"/></g></svg>