<svg viewBox="0 0 64 64" xmlns="http://www.w3.org/2000/svg"><path d="m16 10h-.00000009c1.10457-.00000005 2 .89543 2 2v24.3674l.00000002.00000001c3.11083 1.08563 4.75257 4.48754 3.66694 7.59836-.599357 1.71743-1.94951 3.06758-3.66694 3.66694v4.3673c0 1.10457-.895431 2-2 2-1.10457 0-2-.895431-2-2v-4.3673l.00000016.00000005c-3.11083-1.08563-4.75257-4.48754-3.66694-7.59836.599357-1.71743 1.94951-3.06758 3.66694-3.66694v-24.3674.0000003c-.00000017-1.10457.89543-2 2-2h.00000018zm16 0h-.00000009c1.10457-.00000005 2 .89543 2 2v4.3673l.00000002.00000001c3.11083 1.08563 4.75257 4.48754 3.66694 7.59836-.599357 1.71743-1.94951 3.06758-3.66694 3.66694v24.3674c0 1.10457-.895431 2-2 2-1.10457 0-2-.895431-2-2v-24.3673l.00000016.00000005c-3.11083-1.08563-4.75257-4.48754-3.66694-7.59836.599357-1.71743 1.94951-3.06758 3.66694-3.66694v-4.3674.0000003c-.00000017-1.10457.89543-2 2-2h.00000018zm16 0h-.00000009c1.10457-.00000005 2 .89543 2 2v14.3674l.00000002.00000001c3.11083 1.08563 4.75257 4.48754 3.66694 7.59836-.599357 1.71743-1.94951 3.06758-3.66694 3.66694v14.3673c0 1.10457-.895431 2-2 2-1.10457 0-2-.895431-2-2v-14.3673l.00000016.00000005c-3.11083-1.08563-4.75257-4.48754-3.66694-7.59836.599357-1.71743 1.94951-3.06758 3.66694-3.66694v-14.3674.0000003c-.00000017-1.10457.89543-2 2-2h.00000018z" fill-rule="evenodd"/></svg>