<svg fill="none" height="24" viewBox="0 0 24 24" width="24" xmlns="http://www.w3.org/2000/svg"><g fill="#000"><path d="m3 15c.55228 0 1 .4477 1 1v3c0 .5523.44772 1 1 1h3c.55228 0 1 .4477 1 1s-.44772 1-1 1h-3c-1.65685 0-3-1.3431-3-3v-3c0-.5523.44772-1 1-1z"/><path d="m21 15c.5523 0 1 .4477 1 1v3c0 1.6569-1.3431 3-3 3h-3c-.5523 0-1-.4477-1-1s.4477-1 1-1h3c.5523 0 1-.4477 1-1v-3c0-.5523.4477-1 1-1z"/><path d="m8 2c.55228 0 1 .44772 1 1s-.44772 1-1 1h-3c-.55228 0-1 .44772-1 1v3c0 .55228-.44772 1-1 1s-1-.44772-1-1v-3c0-1.65685 1.34315-3 3-3z"/><path d="m19 2c1.6569 0 3 1.34315 3 3v3c0 .55228-.4477 1-1 1s-1-.44772-1-1v-3c0-.55228-.4477-1-1-1h-3c-.5523 0-1-.44772-1-1s.4477-1 1-1z"/></g></svg>