<svg fill="none" height="24" viewBox="0 0 24 24" width="24" xmlns="http://www.w3.org/2000/svg"><g fill="#000"><path d="m12 1c6.0751 0 11 4.92487 11 11 0 .7521-.0753 1.4879-.2197 2.1992-.11.5411-.6385.8911-1.1797.7813-.5411-.1101-.8901-.6386-.7803-1.1797.1179-.581.1797-1.1832.1797-1.8008 0-4.97056-4.0294-9-9-9-4.97056 0-9 4.02944-9 9 0 4.9706 4.02944 9 9 9 .6176 0 1.2198-.0618 1.8008-.1797.5411-.1098 1.0696.2392 1.1797.7803.1098.5412-.2402 1.0697-.7813 1.1797-.7113.1444-1.4471.2197-2.1992.2197-6.07513 0-11-4.9249-11-11 0-6.07513 4.92487-11 11-11z"/><path d="m19 15c.5523 0 1 .4477 1 1v2h2c.5523 0 1 .4477 1 1s-.4477 1-1 1h-2v2c0 .5523-.4477 1-1 1s-1-.4477-1-1v-2h-2c-.5523 0-1-.4477-1-1s.4477-1 1-1h2v-2c0-.5523.4477-1 1-1z"/><path d="m15.0342 13.7412c.1428-.5329.6904-.8492 1.2236-.707.5335.1424.8503.6901.708 1.2236l-.9658-.2578c.9662.2577.9658.2578.9658.2578v.002l-.001.0019s-.0004.0039-.0009.0059c-.0011.0039-.0025.0084-.0039.0136-.0031.011-.0077.0255-.0127.042-.01.033-.0238.0768-.042.1299-.0365.1064-.0903.2514-.166.4219-.1506.3387-.3928.7925-.7588 1.25-.7476.9342-2.0152 1.875-3.9805 1.875s-3.23294-.9408-3.98047-1.875c-.36603-.4575-.60824-.9113-.75879-1.25-.07576-.1705-.12956-.3155-.16601-.4219-.0182-.053-.03202-.0969-.042-.1299-.00499-.0165-.00958-.031-.01269-.042-.00149-.0052-.00284-.0097-.00391-.0136-.00055-.002-.00097-.0059-.00097-.0059l-.00098-.0019c-.0069-.035 0-.002 0-.002-.14228-.5335.17452-1.0812.70801-1.2236.53325-.1422 1.08085.1741 1.22363.707l.00098.0029c.0033.011.00967.0318.01953.0606.01978.0577.05335.1471.10254.2578.09944.2238.25827.5201.49218.8125.45255.5656 1.18455 1.125 2.41895 1.125s1.9664-.5594 2.4189-1.125c.234-.2924.3928-.5887.4922-.8125.0492-.1107.0828-.2001.1026-.2578.0098-.0288.0162-.0496.0195-.0606z"/><path d="m8.5 8c.82843 0 1.5.67157 1.5 1.5 0 .8284-.67157 1.5-1.5 1.5s-1.5-.6716-1.5-1.5c0-.82843.67157-1.5 1.5-1.5z"/><path d="m15.5 8c.8284 0 1.5.67157 1.5 1.5 0 .8284-.6716 1.5-1.5 1.5s-1.5-.6716-1.5-1.5c0-.82843.6716-1.5 1.5-1.5z"/></g></svg>