<svg viewBox="0 0 24 24" xmlns="http://www.w3.org/2000/svg"><path d="m-44.4 1.7c2.2-2.2 5.4-3 8.4-2 .7.2 1.4-.2 1.6-.8.2-.7-.2-1.4-.8-1.6-5.7-1.8-11.7 1.3-13.5 7-.8 2.4-.7 5 .3 7.3v.3l-1.4.9c-.5.3-.6.9-.3 1.4.1.2.4.4.6.4l4.4.9h.2c.5 0 .9-.3 1-.8l.9-4.4c.1-.5-.2-1.1-.8-1.2-.3 0-.5 0-.8.1l-1.3.9c-.1 0-.3 0-.3 0-.9-2.9-.2-6.2 2-8.3z"/><path d="m-26.7 1.3c0-.4-.4-.7-.8-.8l-4.4-1c-.5-.1-1.1.2-1.2.7l-1 4.4c-.1.5.2 1.1.8 1.2.3 0 .5 0 .8-.1l1.4-.9h.2s.1 0 .2.2c1.4 4.3-1 9-5.3 10.4-1.6.5-3.4.5-5 0-.7-.2-1.4.1-1.6.8s.1 1.4.8 1.6c5.7 1.8 11.7-1.4 13.4-7.1.7-2.4.6-4.9-.3-7.2 0-.1 0-.2.1-.3l1.3-.8c.3-.2.5-.6.5-1z"/><rect height="5" rx="2.5" transform="matrix(0 -1 1 0 30.8 65.4)" width="32" x="32.1" y="14.8"/><path d="m24 6.4c0-.1 0-.2-.2-.2l-6.4-1.9c-.1 0-.3 0-.3.2l-1.9 6.4v.3h.2s0 0 .1 0l2.5-1.4c.3.7.4 1.5.4 2.3 0 3.6-2.9 6.5-6.5 6.5s-1.2 0-1.7-.2c-1.1-.3-2.2.3-2.5 1.4s.3 2.2 1.4 2.5c.9.3 1.9.4 2.8.4 5.8 0 10.5-4.7 10.5-10.5s-.3-2.9-.9-4.2l2.2-1.2s.1-.1.1-.2z"/><path d="m8.6 12.9s-.2 0-.3 0l-2.5 1.4c-.3-.7-.4-1.5-.4-2.2 0-3.6 2.9-6.5 6.5-6.5s1.2 0 1.7.2c1.1.3 2.2-.3 2.5-1.4s-.3-2.2-1.4-2.5c-.9-.2-1.8-.4-2.8-.4-5.7-0-10.4 4.7-10.4 10.5s.3 2.8.9 4.2l-2.2 1.2s-.1.1-.1.2 0 .2.2.2l6.4 1.9s0 0 0 0c.1 0 .2 0 .2-.2l1.9-6.4s0-.2 0-.3z"/><circle cx="40" cy="-9" fill="none" r="8.5" stroke="#000" stroke-miterlimit="10" stroke-width="4"/><path d="m51.2-14.7-5-1.5c-.3 0-.5 0-.8 0-.2.1-.4.3-.5.6l-1.5 5c-.1.4 0 .8.3 1 .2.1.4.2.6.2s.3 0 .5-.1l6.5-3.6c.3-.2.5-.6.5-1s-.3-.7-.7-.8z"/><path d="m28.7-3.7 5 1.5h.8c.2-.1.4-.3.5-.6l1.5-5c.1-.4 0-.8-.3-1-.2-.1-.4-.2-.6-.2s-.3 0-.5.1l-6.5 3.6c-.3.2-.5.6-.5 1s.3.7.7.8z"/></svg>