<svg fill="none" height="24" viewBox="0 0 24 24" width="24" xmlns="http://www.w3.org/2000/svg"><path d="m18.5 7c.3978 0 .7794-.15804 1.0607-.43934s.4393-.66284.4393-1.06066-.158-.77936-.4393-1.06066-.6629-.43934-1.0607-.43934-.7794.15804-1.0607.43934-.4393.66284-.4393 1.06066.158.77936.4393 1.06066.6629.43934 1.0607.43934zm-15.91 4.58 9-9c.36-.36.86-.58 1.41-.58h7c1.11 0 2 .89 2 2v7c0 .55-.22 1.05-.59 1.41l-8.99 9c-.37.36-.87.59-1.42.59s-1.05-.23-1.41-.59l-7-7c-.37-.36-.59-.86-.59-1.41 0-.56.23-1.06.59-1.42z" fill="#000"/></svg>