<svg viewBox="0 0 24 24" xmlns="http://www.w3.org/2000/svg"><path d="m10.2 11.2h-2.1c-.2 0-.4-.2-.4-.4v-2.1c0-.6-.5-1.1-1.1-1.1s-1.1.5-1.1 1.1v2.1c0 .2-.2.4-.4.4h-2.1c-.6 0-1.1.5-1.1 1.1s.5 1.1 1.1 1.1h2.1c.2 0 .4.2.4.4v2.1c0 .6.5 1.1 1.1 1.1s1.1-.5 1.1-1.1v-2.1c0-.2.2-.4.4-.4h2.1c.6 0 1.1-.5 1.1-1.1s-.5-1.1-1.1-1.1z"/><rect height="16.6" rx="1.4" width="2.7" x="16.2" y="3.4"/><rect height="8.3" rx="1.4" transform="matrix(0 1 -1 0 36.3 .9)" width="2.7" x="16.3" y="14.4"/><rect height="6.6" rx="1.4" transform="matrix(.70710678 .70710678 -.70710678 .70710678 9 -9.5)" width="2.7" x="14.6" y="2.8"/></svg>