<svg enable-background="new 0 0 362 362" viewBox="0 0 362 362" xmlns="http://www.w3.org/2000/svg"><g><path d="m346.7 158.6c-18.8-20.6-40.3-38.6-64-53.6l59.5-59.4c5.9-5.7 6.1-15.1.4-21s-15.1-6.1-21-.4c-.1.1-.2.2-.4.4l-.3.3c-.5 1.6-1.4 3.1-2.6 4.3l-290.1 290c-.1.1-.3.1-.4.3-3.1 7.6.5 16.3 8.1 19.4 5.5 2.3 11.9 1 16.1-3.2l61.7-61.7c20.2 8.8 42 13.6 64.1 14h4.5c63.3 0 126.3-44.4 164.4-86.3 11-12.3 11-30.9 0-43.1zm-102.5 40.4c-6.6 21.4-23.2 38.3-44.6 45-15.2 4.8-31.6 3.8-46.1-2.8-1.9-.9-2.7-3.2-1.7-5 .2-.4.4-.7.7-1l82.7-82.7c1.4-1.5 3.8-1.5 5.3-.1.3.3.6.7.8 1.1 6.5 14.3 7.5 30.5 2.9 45.5z"/><path d="m114.8 201c.9-.9 1.3-2.3.9-3.6-1.7-5.6-2.5-11.4-2.6-17.3 0-37 30-66.9 66.9-66.9 5.8.1 11.6.9 17.3 2.6 1.3.4 2.6 0 3.6-.9l28.8-28.9c1.5-1.5 1.5-3.9 0-5.3-.4-.4-.9-.7-1.5-.9-15.6-5-31.9-7.5-48.2-7.4-64-.9-127.9 43.9-166.4 86.3-11.2 12.2-11.2 30.9-.1 43.1 15.4 16.8 32.5 31.9 51.1 45.1 1.5 1 3.5.9 4.8-.4z"/></g></svg>